<?xml version="1.0" encoding="UTF-8"?>
<svg width="100px" height="100px" viewBox="0 0 100 100" version="1.1" xmlns="http://www.w3.org/2000/svg" xmlns:xlink="http://www.w3.org/1999/xlink">
    <title>compose</title>
    <g id="Page-1" stroke="none" stroke-width="1" fill="none" fill-rule="evenodd" opacity="0.5">
        <g id="Landing-page-ReactNative-Aria" transform="translate(-478.000000, -987.000000)" fill="#4B3AB1" fill-rule="nonzero">
            <g id="4-copy-4" transform="translate(440.000000, 987.000000)">
                <g id="compose" transform="translate(38.000000, 0.000000)">
                    <path d="M31.4506823,68.3883041 L54.9766082,62.5091618 L99.6923977,17.7996101 L82.0393762,0.146588694 L37.3298246,44.8654971 L31.4506823,68.3883041 Z M82.0393762,8.9668616 L90.8721248,17.7996101 L86.4619883,22.2003899 L77.6385965,13.380117 L82.0393762,8.9668616 Z M73.22846,17.7996101 L82.0393762,26.6105263 L53.3672515,55.2826511 L44.5469786,46.4592593 L73.22846,17.7996101 Z M41.8366472,52.5598441 L47.2791423,58.0023392 L40.0214425,59.814425 L41.8366472,52.5598441 Z" id="Shape"></path>
                    <path d="M49.9146199,93.5890838 C25.7992203,93.5444444 6.28615984,73.9586745 6.33099415,49.8434698 C6.37582846,25.7280702 25.9614035,6.21520468 50.0766082,6.25984405 C53.9569201,6.26705653 57.8189084,6.791423 61.5604288,7.81910331 L63.2196881,1.81520468 C36.6549708,-5.52534113 9.16920078,10.0588694 1.82846004,36.6235867 C-5.5122807,63.1883041 10.0719298,90.674269 36.6368421,98.0150097 C63.2017544,105.35575 90.6875244,89.77154 98.0282651,63.2066277 C98.0551657,63.1093567 98.0816764,63.0120858 98.1079922,62.9146199 L92.0853801,61.2959064 C86.9263158,80.3432749 69.6481481,93.5744639 49.9146199,93.5890838 Z" id="Path"></path>
                    <path d="M93.5793372,49.9243665 C93.5793372,51.8192982 93.4573099,53.7120858 93.214425,55.591423 L99.4023392,56.3898635 C99.6773879,54.245614 99.8159844,52.0861598 99.817154,49.9243665 L99.817154,49.7746589 L93.5793372,49.9243665 Z" id="Path"></path>
                    <path d="M93.1769981,43.9734893 L99.3617934,43.1345029 C99.0606238,40.9354776 98.6136452,38.7588694 98.0237817,36.6191033 L92.0105263,38.2783626 C92.5270955,40.1483431 92.9167641,42.0510721 93.1769981,43.9734893 Z" id="Path"></path>
                </g>
            </g>
        </g>
    </g>
</svg>