<?xml version="1.0" encoding="UTF-8"?>
<svg width="102px" height="102px" viewBox="0 0 102 102" version="1.1" xmlns="http://www.w3.org/2000/svg" xmlns:xlink="http://www.w3.org/1999/xlink">
    <title>Group 18</title>
    <g id="Page-1" stroke="none" stroke-width="1" fill="none" fill-rule="evenodd" opacity="0.7">
        <g id="Landing-page-ReactNative-Aria" transform="translate(-1142.000000, -986.000000)">
            <g id="Group-16" transform="translate(1087.000000, 987.000000)">
                <g id="Group-18" transform="translate(56.000000, 0.000000)">
                    <g id="mixer" transform="translate(21.000000, 28.000000)" fill="#4B3AB1" fill-rule="nonzero">
                        <path d="M7.67292788,29.2439275 C7.00414424,29.2439275 6.46194833,29.7741048 6.46194833,30.4284165 L6.46194833,41.7214924 C6.46194833,43.5599773 8.23562971,45 10.5,45 C12.7643703,45 14.5380517,43.5599773 14.5380517,41.7214924 L14.5380517,18.5070876 C18.136437,18.3030397 21,15.3876174 21,11.8319394 C21,8.27626144 18.136437,5.36099715 14.5380517,5.15679125 L14.5380517,3.26476751 C14.5380517,1.43402133 12.7643703,0 10.5,0 C8.23562971,0 6.46194833,1.43402133 6.46194833,3.26476751 L6.46194833,5.15679125 C2.86356297,5.36083921 0,8.27626144 0,11.8319394 C0,15.3876174 2.86356297,18.3028817 6.46194833,18.5070876 L6.46194833,24.7796675 C6.46194833,25.4339792 7.00414424,25.9641565 7.67292788,25.9641565 C8.34171152,25.9641565 8.88390743,25.4339792 8.88390743,24.7796675 L8.88390743,18.5195642 L12.116254,18.5195642 L12.116254,41.7214924 C12.116254,42.1509092 11.4250269,42.631022 10.5001615,42.631022 C9.57529602,42.631022 8.88406889,42.1509092 8.88406889,41.7214924 L8.88406889,30.4284165 C8.88390743,29.7741048 8.34171152,29.2439275 7.67292788,29.2439275 Z M10.5,2.36897797 C11.4101722,2.36897797 12.1160926,2.85051223 12.1160926,3.26476751 L12.1160926,5.14431463 L8.88390743,5.14431463 L8.88390743,3.26476751 C8.88390743,2.85051223 9.58982777,2.36897797 10.5,2.36897797 Z M2.4219591,11.8319394 C2.4219591,9.45064278 4.41523143,7.5132926 6.86528525,7.5132926 L14.1348762,7.5132926 C16.58493,7.5132926 18.5782024,9.45064278 18.5782024,11.8319394 C18.5782024,14.2132361 16.58493,16.1505863 14.1348762,16.1505863 C13.4250807,16.1060495 7.73121636,16.1752236 6.86528525,16.1505863 C4.41506997,16.1504283 2.4219591,14.2132361 2.4219591,11.8319394 Z" id="Shape"></path>
                        <path d="M40,33.0239631 C40,29.4646973 37.1277401,26.546816 33.5216322,26.350754 L33.5392316,3.27732817 C33.5392316,1.43952389 31.7655639,0 29.501211,0 C27.2370196,0 25.4631903,1.43952389 25.4631903,3.27811747 L25.4780449,26.350754 C21.8720985,26.5469738 19,29.4648551 19,33.0239631 C19,36.5816504 21.8696765,39.4984267 25.4733625,39.6968565 L25.4631903,41.7395628 C25.4631903,43.5678955 27.2368581,45 29.501211,45 C31.7655639,45 33.5392316,43.5678955 33.5392316,41.7327749 L33.5271219,39.6966986 C37.1306464,39.4979531 40,36.5814925 40,33.0239631 Z M29.501211,2.36789762 C30.4262308,2.36789762 31.1172911,2.8479494 31.1172911,3.27638101 L31.0996917,26.339546 L27.8999854,26.339546 L27.8851308,3.27732817 C27.8851308,2.8479494 28.5763526,2.36789762 29.501211,2.36789762 Z M29.501211,42.6322602 C28.5910457,42.6322602 27.8851308,42.1525242 27.8851308,41.7454036 L27.895303,39.7085381 L31.1051814,39.7085381 L31.1172911,41.7397207 C31.1174526,42.1525242 30.4113762,42.6322602 29.501211,42.6322602 L29.501211,42.6322602 Z M33.1347675,37.3406405 L25.865071,37.3406405 C23.4151975,37.3406405 21.4219405,35.4041738 21.4219405,33.0239631 C21.4219405,30.6437524 23.4151975,28.7072858 25.865071,28.7072858 L33.1347675,28.7072858 C35.5848025,28.7072858 37.5780595,30.6437524 37.5780595,33.0239631 C37.5780595,35.4041738 35.5848025,37.3406405 33.1347675,37.3406405 L33.1347675,37.3406405 Z" id="Shape"></path>
                        <path d="M51.5380517,13.2815742 L51.5380517,3.28458864 C51.5380517,1.44276471 49.7643703,0 47.5,0 C45.2356297,0 43.4619483,1.44276471 43.4619483,3.28821645 L43.4926265,13.279366 C39.8797094,13.4683276 37,16.3871383 37,19.9482292 C37,23.5097933 39.8805167,26.4289194 43.4939182,26.6172502 L43.4619483,41.7385978 C43.4619483,43.5674878 45.2356297,45 47.5,45 C49.7643703,45 51.5380517,43.5674878 51.5380517,41.7385978 L51.5380517,26.6148842 C55.136437,26.4110958 58,23.4993831 58,19.9482292 C58,16.3970753 55.136437,13.4853626 51.5380517,13.2815742 Z M47.4998385,2.36580604 C48.4248654,2.36580604 49.1159311,2.85082861 49.1159311,3.28443091 L49.1159311,13.2689558 L45.9142626,13.2689558 L45.8835845,3.28443091 C45.883746,2.85098634 46.5749731,2.36580604 47.4998385,2.36580604 L47.4998385,2.36580604 Z M47.4998385,42.6337208 C46.5896663,42.6337208 45.883746,42.152326 45.883746,41.740806 L45.9157158,26.6271872 L49.1160926,26.6271872 L49.1160926,41.7384401 C49.1160926,42.1524837 48.4101722,42.6337208 47.4998385,42.6337208 L47.4998385,42.6337208 Z M51.1348762,24.2612234 L43.8651238,24.2612234 C41.41507,24.2612234 39.4217976,22.3263383 39.4217976,19.9480715 C39.4217976,17.5698047 41.41507,15.6349195 43.8651238,15.6349195 L51.1348762,15.6349195 C53.5847686,15.6349195 55.5780409,17.5698047 55.5780409,19.9480715 C55.5780409,22.3263383 53.5847686,24.2612234 51.1348762,24.2612234 Z" id="Shape"></path>
                    </g>
                    <circle id="Oval" stroke="#4B3AB1" stroke-width="2" cx="50" cy="50" r="50"></circle>
                </g>
            </g>
        </g>
    </g>
</svg>